<svg width="50" height="50" xmlns="http://www.w3.org/2000/svg" fill="none">

 <g>
  <title>Layer 1</title>
  <path stroke="null" id="svg_1" fill="#f33057" d="m28.68747,36.68747c0,2.0366 -1.65089,3.6875 -3.6875,3.6875c-2.0366,0 -3.6875,-1.65089 -3.6875,-3.6875c0,-2.0366 1.65089,-3.6875 3.6875,-3.6875c2.0366,0 3.6875,1.65089 3.6875,3.6875z"/>
  <path stroke="null" id="svg_2" fill-rule="evenodd" fill="#f33057" d="m24.99997,8.12499c1.89853,0 3.4375,1.28719 3.4375,2.875l0,17.24999c0,1.58786 -1.53897,2.875 -3.4375,2.875c-1.89853,0 -3.4375,-1.28714 -3.4375,-2.875l0,-17.24999c0,-1.5878 1.53897,-2.875 3.4375,-2.875z" clip-rule="evenodd"/>
  <path stroke="null" id="svg_3" fill-rule="evenodd" fill="#f33057" d="m24.99997,5.30832c-10.89841,0 -19.73332,8.8349 -19.73332,19.73332c0,10.89846 8.8349,19.73332 19.73332,19.73332c10.89846,0 19.73332,-8.83485 19.73332,-19.73332c0,-10.89842 -8.83485,-19.73332 -19.73332,-19.73332zm-24.66665,19.73332c0,-13.62302 11.04363,-24.66665 24.66665,-24.66665c13.6229,0 24.66665,11.04363 24.66665,24.66665c0,13.6229 -11.04375,24.66665 -24.66665,24.66665c-13.62302,0 -24.66665,-11.04375 -24.66665,-24.66665z" clip-rule="evenodd"/>
 </g>
</svg>